<?xml version="1.0" encoding="utf-8"?>
<!-- Generator: Adobe Illustrator 17.0.0, SVG Export Plug-In . SVG Version: 6.00 Build 0)  -->
<!DOCTYPE svg PUBLIC "-//W3C//DTD SVG 1.1//EN" "http://www.w3.org/Graphics/SVG/1.1/DTD/svg11.dtd">
<svg version="1.1" id="Layer_1" xmlns="http://www.w3.org/2000/svg" xmlns:xlink="http://www.w3.org/1999/xlink" x="0px" y="0px"
	 width="792px" height="864px" viewBox="0 72 792 864" enable-background="new 0 72 792 864" xml:space="preserve">
<path d="M309.375,429.75c-48.262,0-86.625-38.363-86.625-86.625s38.363-86.625,86.625-86.625S396,294.863,396,343.125
	S357.637,429.75,309.375,429.75z M309.375,281.25c-34.65,0-61.875,27.225-61.875,61.875S274.725,405,309.375,405
	s61.875-27.225,61.875-61.875S344.025,281.25,309.375,281.25z"/>
<path d="M309.375,379.012c-19.8,0-35.887-16.087-35.887-35.887s16.087-35.887,35.887-35.887s35.887,16.087,35.887,35.887
	S329.175,379.012,309.375,379.012z M309.375,331.988c-6.188,0-11.137,4.95-11.137,11.137s4.95,11.137,11.137,11.137
	s11.137-4.95,11.137-11.137S315.562,331.988,309.375,331.988z"/>
<path d="M482.625,429.75c-48.263,0-86.625-38.363-86.625-86.625s38.362-86.625,86.625-86.625s86.625,38.363,86.625,86.625
	S530.888,429.75,482.625,429.75z M482.625,281.25c-34.65,0-61.875,27.225-61.875,61.875S447.975,405,482.625,405
	s61.875-27.225,61.875-61.875S517.275,281.25,482.625,281.25z"/>
<path d="M482.625,379.012c-19.8,0-35.888-16.087-35.888-35.887s16.087-35.887,35.888-35.887s35.888,16.087,35.888,35.887
	S502.425,379.012,482.625,379.012z M482.625,331.988c-6.188,0-11.138,4.95-11.138,11.137s4.95,11.137,11.138,11.137
	s11.138-4.95,11.138-11.137S488.812,331.988,482.625,331.988z"/>
<path d="M396,108C232.65,108,99,241.65,99,405v210.375C99,663.638,137.363,702,185.625,702h420.75
	C654.638,702,693,663.638,693,615.375V405C693,241.65,559.35,108,396,108z M606.375,677.25h-420.75
	c-34.65,0-61.875-27.225-61.875-61.875V405c0-149.738,122.512-272.25,272.25-272.25S668.25,255.262,668.25,405v210.375
	C668.25,650.025,641.025,677.25,606.375,677.25z"/>
<path d="M396,466.875c-65.587,0-122.512,47.025-133.65,111.375h24.75c11.138-50.737,55.688-86.625,108.9-86.625
	c51.975,0,97.763,35.888,108.9,86.625h24.75C518.513,513.9,461.587,466.875,396,466.875z"/>
</svg>
